<svg width="96" height="96" xmlns="http://www.w3.org/2000/svg" xmlns:xlink="http://www.w3.org/1999/xlink" overflow="hidden"><defs><clipPath id="clip0"><rect x="592" y="296" width="96" height="96"/></clipPath></defs><g clip-path="url(#clip0)" transform="translate(-592 -296)"><path d="M656 326C656 334.837 648.837 342 640 342 631.163 342 624 334.837 624 326 624 317.163 631.163 310 640 310 648.837 310 656 317.163 656 326Z" fill="#FFFFFF"/><path d="M672 378 672 362C672 359.6 670.8 357.2 668.8 355.6 664.4 352 658.8 349.6 653.2 348 649.2 346.8 644.8 346 640 346 635.6 346 631.2 346.8 626.8 348 621.2 349.6 615.6 352.4 611.2 355.6 609.2 357.2 608 359.6 608 362L608 378 672 378Z" fill="#FFFFFF"/></g></svg>