<svg width="96" height="96" xmlns="http://www.w3.org/2000/svg" xmlns:xlink="http://www.w3.org/1999/xlink" overflow="hidden"><defs><clipPath id="clip0"><rect x="306" y="392" width="96" height="96"/></clipPath></defs><g clip-path="url(#clip0)" transform="translate(-306 -392)"><path d="M384 457.6 370.31 435.78C370.065 435.38 369.629 435.137 369.16 435.14 368.689 435.14 368.251 435.382 368 435.78L364 442.2 372.58 456.08C373.306 457.178 373.462 458.557 373 459.79L382.7 459.79C383.494 459.83 384.17 459.218 384.21 458.424 384.224 458.134 384.151 457.847 384 457.6Z"/><path d="M369.1 457.73 347.35 422.34C347.071 421.979 346.636 421.775 346.18 421.79L346 421.79 345.82 421.79C345.364 421.775 344.929 421.979 344.65 422.34L322.9 457.73C322.592 458.161 322.549 458.728 322.79 459.2 323.033 459.628 323.513 459.862 324 459.79L368 459.79C368.487 459.862 368.967 459.628 369.21 459.2 369.451 458.728 369.408 458.161 369.1 457.73ZM349.64 438.92 346.18 442 342.72 438.92 337 442.38 346 427.79 354.76 442Z"/><path d="M336 424C336 425.657 334.657 427 333 427 331.343 427 330 425.657 330 424 330 422.343 331.343 421 333 421 334.657 421 336 422.343 336 424Z"/><path d="M320 466 320 416 388 416 388 466ZM394 472 394 410 314 410 314 472Z"/></g></svg>