<?xml version="1.0" encoding="utf-8"?>
<!-- Generator: Adobe Illustrator 23.0.3, SVG Export Plug-In . SVG Version: 6.00 Build 0)  -->
<svg version="1.1" id="Layer_1" xmlns="http://www.w3.org/2000/svg" xmlns:xlink="http://www.w3.org/1999/xlink" x="0px" y="0px"
	 viewBox="0 0 1080 327.67" style="enable-background:new 0 0 1080 327.67;" xml:space="preserve">
<style type="text/css">
	.st0{fill:#D0495C;}
	.st1{fill:#2F4057;}
	.st2{fill:#EDAE49;}
</style>
<g>
	<g>
		<g>
			<rect x="87.64" y="87.64" class="st0" width="21.91" height="152.38"/>
			<rect x="261.94" y="87.64" class="st0" width="21.91" height="152.38"/>
			
				<rect x="174.79" y="109.56" transform="matrix(-1.836970e-16 1 -1 -1.836970e-16 349.5843 -21.911)" class="st1" width="21.91" height="108.56"/>
			
				<rect x="147.65" y="92.87" transform="matrix(-1.836970e-16 1 -1 -1.836970e-16 278.6213 -38.5939)" class="st2" width="21.91" height="54.28"/>
			
				<rect x="147.65" y="180.52" transform="matrix(-1.836970e-16 1 -1 -1.836970e-16 366.2661 49.0508)" class="st2" width="21.91" height="54.28"/>
		</g>
		<g>
			<path class="st1" d="M436.49,161.52h31.15v59.78c-8,6.03-17.26,10.67-27.78,13.89s-21.12,4.84-31.78,4.84
				c-15.3,0-29.05-3.26-41.25-9.79c-12.21-6.52-21.78-15.57-28.73-27.15s-10.42-24.66-10.42-39.26c0-14.59,3.47-27.68,10.42-39.25
				s16.59-20.63,28.94-27.15c12.35-6.52,26.24-9.79,41.67-9.79c12.91,0,24.63,2.18,35.15,6.52c10.52,4.35,19.37,10.66,26.52,18.94
				l-21.89,20.21c-10.52-11.08-23.23-16.63-38.1-16.63c-9.4,0-17.75,1.97-25.05,5.89c-7.3,3.93-12.98,9.47-17.05,16.63
				c-4.07,7.15-6.1,15.36-6.1,24.62c0,9.12,2.03,17.26,6.1,24.42c4.07,7.16,9.71,12.73,16.94,16.73c7.23,4,15.47,6,24.73,6
				c9.82,0,18.66-2.1,26.52-6.31V161.52z"/>
			<path class="st1" d="M511.84,225.3c-10.1-9.68-15.15-23.01-15.15-39.99v-68.83h33.26v67.77c0,9.4,2.07,16.49,6.21,21.26
				c4.14,4.77,10.21,7.16,18.21,7.16c7.86,0,13.82-2.39,17.89-7.16c4.07-4.77,6.1-11.85,6.1-21.26v-67.77h32.83v68.83
				c0,16.98-5.05,30.31-15.15,39.99c-10.1,9.68-24.14,14.52-42.1,14.52C535.97,239.82,521.94,234.98,511.84,225.3z"/>
			<path class="st1" d="M653.8,236.24c-9.33-2.39-16.81-5.54-22.42-9.47l11.58-24.63c5.47,3.65,11.86,6.52,19.15,8.63
				c7.29,2.1,14.73,3.16,22.31,3.16c7.02,0,12.1-0.95,15.26-2.84c3.16-1.89,4.74-4.45,4.74-7.68c0-3.64-1.97-6.35-5.89-8.1
				c-3.93-1.75-10.18-3.47-18.73-5.16c-9.4-1.96-17.12-4.03-23.15-6.21c-6.04-2.17-11.26-5.72-15.68-10.63
				c-4.42-4.91-6.63-11.64-6.63-20.21c0-7.58,2.17-14.31,6.52-20.2c4.35-5.9,10.63-10.49,18.84-13.79
				c8.21-3.3,17.85-4.95,28.94-4.95c8.14,0,16.07,0.88,23.79,2.63c7.71,1.76,14.38,4.39,19.99,7.89l-10.73,24.63
				c-10.1-6.17-21.54-9.26-34.31-9.26c-6.88,0-11.96,1.02-15.26,3.05c-3.3,2.04-4.95,4.74-4.95,8.1c0,3.65,1.96,6.31,5.89,8
				c3.93,1.69,10.17,3.37,18.73,5.05c9.26,1.97,16.94,4.03,23.05,6.21c6.1,2.18,11.37,5.68,15.79,10.52
				c4.42,4.84,6.63,11.4,6.63,19.68c0,7.72-2.14,14.52-6.42,20.42c-4.28,5.89-10.56,10.49-18.84,13.79
				c-8.28,3.29-18.1,4.94-29.47,4.94C672.71,239.82,663.13,238.62,653.8,236.24z"/>
			<path class="st1" d="M778.93,142.37h-38.09v-25.89h109.45v25.89h-38.1v95.14h-33.26V142.37z"/>
			<path class="st1" d="M889.54,231.72c-10.31-5.4-18.42-12.87-24.31-22.42c-5.89-9.54-8.84-20.27-8.84-32.2
				c0-11.93,2.95-22.7,8.84-32.31c5.89-9.61,14-17.12,24.31-22.52c10.31-5.4,21.92-8.1,34.83-8.1c12.91,0,24.52,2.7,34.83,8.1
				c10.31,5.4,18.42,12.91,24.31,22.52c5.89,9.61,8.84,20.38,8.84,32.31c0,11.93-2.95,22.66-8.84,32.2
				c-5.89,9.54-14,17.02-24.31,22.42c-10.31,5.4-21.93,8.1-34.83,8.1C911.46,239.82,899.85,237.12,889.54,231.72z M941.95,208.04
				c5.26-3.09,9.37-7.33,12.31-12.73c2.95-5.4,4.42-11.47,4.42-18.21c0-6.87-1.47-13.02-4.42-18.42c-2.95-5.4-7.05-9.65-12.31-12.73
				c-5.26-3.09-11.12-4.63-17.58-4.63c-6.46,0-12.31,1.54-17.57,4.63c-5.26,3.09-9.4,7.33-12.42,12.73
				c-3.02,5.4-4.52,11.54-4.52,18.42c0,6.73,1.51,12.81,4.52,18.21c3.02,5.4,7.16,9.65,12.42,12.73c5.26,3.09,11.12,4.63,17.57,4.63
				C930.82,212.67,936.68,211.12,941.95,208.04z"/>
		</g>
	</g>
</g>
</svg>
